<?xml version="1.0" encoding="UTF-8"?>
<svg width="1802px" height="344px" viewBox="0 0 1802 344" version="1.1" xmlns="http://www.w3.org/2000/svg" xmlns:xlink="http://www.w3.org/1999/xlink">
    <!-- Generator: Sketch 53.2 (72643) - https://sketchapp.com -->
    <title>Apprhythmia-lockup-fullcolor</title>
    <desc>Created with Sketch.</desc>
    <g id="Page-1" stroke="none" stroke-width="1" fill="none" fill-rule="evenodd">
        <g id="Apprhythmia-lockup-fullcolor" fill-rule="nonzero">
            <path d="M528.82,228.65 C518.77,228.65 510.86,225.01 505.08,217.73 C499.3,210.45 496.42,200.25 496.42,187.12 C496.42,173.58 498.88,160.68 503.8,148.41 C508.72,136.14 515.18,126.64 523.18,119.9 C531.18,113.17 539.96,109.8 549.53,109.8 C556.16,109.8 561.89,111.24 566.71,114.11 C571.53,116.98 575.27,121.15 577.94,126.62 L578.76,126.62 L584.6,111.96 L608.39,111.96 L583.99,226.6 L560.51,226.6 L561.95,211.73 L561.54,211.73 C552.37,223.01 541.47,228.65 528.82,228.65 Z M540.92,203.73 C545.64,203.73 550.18,201.44 554.56,196.86 C558.93,192.28 562.46,186.08 565.12,178.25 C567.79,170.42 569.12,161.55 569.12,151.64 C569.12,146.79 567.8,142.77 565.17,139.59 C562.54,136.41 559.07,134.82 554.76,134.82 C550.11,134.82 545.68,137.28 541.48,142.2 C537.27,147.12 533.93,153.62 531.43,161.68 C528.93,169.75 527.69,177.75 527.69,185.67 C527.69,191.69 528.83,196.2 531.12,199.21 C533.42,202.23 536.68,203.73 540.92,203.73 Z M697.45,109.81 C707.43,109.81 715.31,113.49 721.09,120.83 C726.87,128.18 729.75,138.45 729.75,151.64 C729.75,164.7 727.41,177.26 722.73,189.32 C718.05,201.39 711.64,210.96 703.5,218.03 C695.36,225.11 686.41,228.64 676.63,228.64 C670.96,228.64 666.07,227.37 661.97,224.85 C657.87,222.33 654.07,218.02 650.59,211.93 L649.77,211.93 C648.95,222.8 647.48,232.88 645.36,242.18 L637.98,277.04 L607.12,277.04 L642.19,111.95 L665.77,111.95 L664.03,129.38 L664.95,129.38 C674.37,116.34 685.21,109.81 697.45,109.81 Z M685.04,134.83 C680.39,134.83 675.9,137.14 671.56,141.75 C667.22,146.37 663.73,152.52 661.1,160.21 C658.47,167.9 657.15,176.4 657.15,185.69 C657.15,191.16 658.41,195.53 660.94,198.81 C663.47,202.09 666.95,203.73 671.4,203.73 C675.98,203.73 680.35,201.37 684.52,196.65 C688.69,191.93 692.06,185.46 694.62,177.22 C697.18,168.98 698.46,160.87 698.46,152.87 C698.47,140.84 693.99,134.83 685.04,134.83 Z M824.54,109.81 C834.52,109.81 842.4,113.49 848.18,120.83 C853.96,128.18 856.84,138.45 856.84,151.64 C856.84,164.7 854.5,177.26 849.82,189.32 C845.14,201.39 838.73,210.96 830.59,218.03 C822.45,225.11 813.5,228.64 803.72,228.64 C798.05,228.64 793.16,227.37 789.06,224.85 C784.96,222.33 781.16,218.02 777.68,211.93 L776.86,211.93 C776.04,222.8 774.57,232.88 772.45,242.18 L765.07,277.04 L734.2,277.04 L769.27,111.95 L792.85,111.95 L791.11,129.38 L792.03,129.38 C801.47,116.34 812.3,109.81 824.54,109.81 Z M812.13,134.83 C807.48,134.83 802.99,137.14 798.65,141.75 C794.31,146.37 790.82,152.52 788.19,160.21 C785.56,167.9 784.24,176.4 784.24,185.69 C784.24,191.16 785.5,195.53 788.03,198.81 C790.56,202.09 794.04,203.73 798.49,203.73 C803.07,203.73 807.44,201.37 811.61,196.65 C815.78,191.93 819.15,185.46 821.71,177.22 C824.27,168.98 825.55,160.87 825.55,152.87 C825.57,140.84 821.09,134.83 812.13,134.83 Z M954.61,109.81 C958.64,109.81 961.92,110.19 964.45,110.94 L957.68,140.68 C954.6,139.59 951.18,139.04 947.43,139.04 C939.5,139.04 932.54,142.17 926.56,148.42 C920.58,154.67 916.32,163.65 913.79,175.34 L902.92,226.61 L872.06,226.61 L896.36,111.97 L919.94,111.97 L917.79,133.2 L918.41,133.2 C928.46,117.6 940.53,109.81 954.61,109.81 Z M1058.94,226.6 L1028.08,226.6 L1042.13,159.64 C1043.22,154.99 1043.77,150.92 1043.77,147.44 C1043.77,139.03 1040.08,134.83 1032.7,134.83 C1026.41,134.83 1020.7,138.73 1015.58,146.52 C1010.46,154.31 1006.42,165.18 1003.48,179.13 L993.43,226.61 L962.57,226.61 L996.41,67.06 L1027.27,67.06 C1024.6,79.43 1022.55,88.94 1021.12,95.57 C1019.68,102.2 1016.74,112.76 1012.3,127.25 L1013.12,127.25 C1017.36,121.99 1022.07,117.76 1027.27,114.59 C1032.46,111.41 1038.48,109.82 1045.32,109.82 C1054.75,109.82 1062.05,112.68 1067.21,118.38 C1072.37,124.09 1074.95,132.24 1074.95,142.84 C1074.95,147.83 1074.16,153.98 1072.59,161.3 L1058.94,226.6 Z M1098.16,111.96 L1128.41,111.96 L1134.15,165.08 C1135.11,173.42 1135.59,183.43 1135.59,195.12 L1136.21,195.12 C1137.58,191.63 1139.08,187.55 1140.72,182.87 C1142.36,178.19 1144.58,172.94 1147.39,167.13 L1174.05,111.96 L1207.58,111.96 L1137.84,243 C1125.74,265.69 1109.23,277.04 1088.31,277.04 C1082.16,277.04 1077.13,276.39 1073.24,275.09 L1073.24,250.48 C1077.89,251.37 1081.85,251.81 1085.13,251.81 C1090.87,251.81 1095.91,250.17 1100.25,246.89 C1104.59,243.61 1108.61,238.51 1112.3,231.61 L1114.97,226.59 L1098.16,111.96 Z M1258.86,203.73 C1263.3,203.73 1268.84,202.53 1275.47,200.14 L1275.47,223.21 C1267.88,226.83 1258.79,228.64 1248.19,228.64 C1237.94,228.64 1230.4,226.49 1225.58,222.18 C1220.76,217.87 1218.35,211.21 1218.35,202.18 C1218.35,198.76 1218.76,194.93 1219.58,190.7 L1231.37,135.43 L1215.78,135.43 L1218.75,120.36 L1238.85,111.75 L1252.39,87.55 L1272.28,87.55 L1267.26,111.95 L1296.28,111.95 L1291.15,135.43 L1262.23,135.43 L1250.44,190.7 C1250.03,192.75 1249.82,194.56 1249.82,196.13 C1249.83,201.2 1252.84,203.73 1258.86,203.73 Z M1394.56,226.6 L1363.7,226.6 L1377.75,159.64 C1378.84,154.99 1379.39,150.92 1379.39,147.44 C1379.39,139.03 1375.7,134.83 1368.32,134.83 C1362.03,134.83 1356.32,138.73 1351.2,146.52 C1346.08,154.31 1342.04,165.18 1339.1,179.13 L1329.05,226.61 L1298.19,226.61 L1332.03,67.06 L1362.89,67.06 C1360.22,79.43 1358.17,88.94 1356.74,95.57 C1355.3,102.2 1352.36,112.76 1347.92,127.25 L1348.74,127.25 C1352.98,121.99 1357.69,117.76 1362.89,114.59 C1368.08,111.41 1374.1,109.82 1380.94,109.82 C1390.37,109.82 1397.67,112.68 1402.83,118.38 C1407.99,124.09 1410.57,132.24 1410.57,142.84 C1410.57,147.83 1409.78,153.98 1408.21,161.3 L1394.56,226.6 Z M1509.87,109.81 C1524.84,109.81 1533.79,117.6 1536.74,133.19 L1537.36,133.19 C1542.01,125.67 1547.49,119.9 1553.82,115.86 C1560.14,111.83 1566.89,109.81 1574.07,109.81 C1583.37,109.81 1590.46,112.72 1595.35,118.53 C1600.24,124.34 1602.68,132.44 1602.68,142.83 C1602.68,148.03 1601.89,154.18 1600.32,161.29 L1586.68,226.61 L1555.82,226.61 L1569.97,159.65 C1571.06,155 1571.61,150.93 1571.61,147.45 C1571.61,139.04 1568.26,134.84 1561.56,134.84 C1555.27,134.84 1549.58,138.67 1544.49,146.32 C1539.4,153.98 1535.35,164.85 1532.34,178.93 L1522.5,226.61 L1491.64,226.61 L1505.69,159.65 C1506.78,155 1507.33,150.93 1507.33,147.45 C1507.33,139.04 1503.98,134.84 1497.28,134.84 C1490.99,134.84 1485.28,138.74 1480.16,146.53 C1475.04,154.32 1471,165.19 1468.06,179.14 L1458.01,226.62 L1427.15,226.62 L1451.45,111.98 L1475,111.98 L1472.85,133.21 L1473.47,133.21 C1483.45,117.6 1495.58,109.81 1509.87,109.81 Z M1650.09,226.6 L1619.23,226.6 L1643.53,111.96 L1674.39,111.96 L1650.09,226.6 Z M1648.45,85.09 C1648.45,79.14 1650.07,74.65 1653.32,71.61 C1656.57,68.57 1661.16,67.05 1667.11,67.05 C1672.1,67.05 1675.89,68.11 1678.49,70.23 C1681.09,72.35 1682.39,75.39 1682.39,79.36 C1682.39,84.83 1680.89,89.26 1677.88,92.64 C1674.87,96.02 1670.22,97.72 1663.93,97.72 C1653.61,97.71 1648.45,93.5 1648.45,85.09 Z M1721.5,228.65 C1711.45,228.65 1703.54,225.01 1697.76,217.73 C1691.98,210.45 1689.1,200.25 1689.1,187.12 C1689.1,173.58 1691.56,160.68 1696.48,148.41 C1701.4,136.14 1707.86,126.64 1715.86,119.9 C1723.86,113.17 1732.64,109.8 1742.21,109.8 C1748.84,109.8 1754.57,111.24 1759.39,114.11 C1764.21,116.98 1767.95,121.15 1770.62,126.62 L1771.44,126.62 L1777.28,111.96 L1801.07,111.96 L1776.67,226.6 L1753.19,226.6 L1754.63,211.73 L1754.22,211.73 C1745.05,223.01 1734.15,228.65 1721.5,228.65 Z M1733.6,203.73 C1738.32,203.73 1742.86,201.44 1747.24,196.86 C1751.61,192.28 1755.14,186.08 1757.8,178.25 C1760.47,170.42 1761.8,161.55 1761.8,151.64 C1761.8,146.79 1760.48,142.77 1757.85,139.59 C1755.22,136.41 1751.75,134.82 1747.44,134.82 C1742.79,134.82 1738.36,137.28 1734.16,142.2 C1729.95,147.12 1726.61,153.62 1724.11,161.68 C1721.61,169.75 1720.37,177.75 1720.37,185.67 C1720.37,191.69 1721.51,196.2 1723.8,199.21 C1726.1,202.23 1729.36,203.73 1733.6,203.73 Z" id="Shape" fill="#FFFFFF"></path>
            <g id="Group" fill="#0092FF">
                <path d="M304.78,159.94 L280.49,159.94 C275.16,159.94 270.43,163.36 268.75,168.42 L244.67,236.03 C240.62,248.24 222.95,246.93 220.74,234.26 L181.87,10.93 C179.69,-1.61 162.27,-3.07 158.03,8.92 L107.86,150.55 C106.12,155.46 101.49,158.76 96.28,158.79 L88.23,158.67 C81.43,158.71 75.94,164.24 75.94,171.04 C75.94,178.55 82.02,184.63 89.53,184.63 L112.15,184.98 C117.32,184.98 121.95,181.76 123.75,176.91 L151.08,103.21 C155.48,91.33 172.77,92.97 174.87,105.46 L213.12,333 C215.27,345.79 233.16,347.07 237.1,334.71 L284.03,192.98 C285.67,187.85 290.43,184.37 295.81,184.37 L304.47,184.37 C311.3,184.37 316.84,178.83 316.84,172 L316.84,172 C316.84,165.34 311.44,159.94 304.78,159.94 Z" id="Path"></path>
                <path d="M379.67,158.29 L379.32,158.28 C367.2,158.28 357.41,148.91 357.41,136.79 L357.41,68.8 C357.41,50.1 342.25,34.94 323.55,34.94 L209.85,34.94 L209.92,46.25 C209.97,54.48 216.66,61.12 224.88,61.12 L312.27,61.12 C319.34,61.12 325.06,66.85 325.06,73.91 L325.06,136.42 C325.06,144.95 328.11,153.37 333.05,160.33 L333.05,160.33 C338.04,166.45 342.71,168.57 348.57,171.44 L350.9,172.2 L350.08,172.43 C343.96,174.11 334.77,180.93 331.3,186.25 L331.3,186.25 C325.67,194.89 325.31,203.92 325.31,214.23 L325.31,270.77 C325.31,279.14 318.53,285.92 310.16,285.92 L285.76,285.92 C277.5,285.92 270.8,292.62 270.8,300.88 L270.8,309.05 L323.86,309.05 C342.95,309.05 358.42,293.58 358.42,274.49 L358.42,206.56 C358.42,194.98 367.84,185.7 379.42,185.7 L379.91,185.69 C387.47,185.69 393.03,177.42 393.03,173.09 L393.03,172 C393.03,164.62 387.04,158.29 379.67,158.29 Z" id="Path"></path>
                <g id="White_opaque_brand_mark_24_" transform="translate(0.000000, 34.000000)">
                    <path d="M123.78,0.94 L70.41,0.94 C51.71,0.94 36.55,16.1 36.55,34.8 L36.55,102.79 C36.55,114.91 26.76,124.28 14.64,124.28 L14.29,124.29 C6.91,124.29 0.93,130.62 0.93,138 L0.93,139.1 C0.93,143.43 6.49,151.7 14.05,151.7 L14.54,151.71 C26.12,151.71 35.54,160.98 35.54,172.57 L35.54,240.5 C35.54,259.59 51.01,275.06 70.1,275.06 L186.06,275.06 L186.06,266.89 C186.06,258.63 179.36,251.93 171.1,251.93 L83.8,251.93 C75.43,251.93 68.65,245.15 68.65,236.78 L68.65,180.24 C68.65,169.93 68.29,160.9 62.66,152.26 L62.66,152.26 C59.2,146.94 50,140.12 43.88,138.44 L43.06,138.21 L45.39,137.45 C51.25,134.58 55.93,132.45 60.91,126.34 L60.91,126.34 C65.85,119.38 68.9,110.96 68.9,102.43 L68.9,39.92 C68.9,32.85 74.63,27.13 81.69,27.13 L108.75,27.13 C116.98,27.13 123.66,20.49 123.71,12.26 L123.78,0.94 Z" id="Path"></path>
                </g>
            </g>
        </g>
    </g>
</svg>